<svg id="Layer_1" data-name="Layer 1" xmlns="http://www.w3.org/2000/svg" viewBox="0 0 1850 444.94"><defs><style>.cls-1{fill:#00acee;}.cls-2{fill:#231f20;}</style></defs><path class="cls-1" d="M382.75,241.76c-5-15.64-11-30.82-22.22-45.12,0,17,.31,32-.06,47-1.15,46.39-15.79,87.4-50.41,119.47C293.14,378.8,274.27,392.2,250,393.45c-17.14.88-26.9-9.26-26.81-26.3.08-13.84,6.92-24.87,14.76-35.41,12.13-16.29,27.82-29.31,41.21-44.42,31.69-35.78,43.85-76.66,30.5-123.54a108.09,108.09,0,0,0-10.05-23.44c-24.64-43.25-64.2-72.74-98.11-108.81-3.5,8.4-5.86,14.72-8.7,20.8C178,83.84,151,104.72,126.87,128.07,106.54,147.78,86,167.19,69.52,190.44c-50.75,71.65-45,169.77,13.62,231.09,56.85,59.5,150,72.33,220.3,30.35A179.87,179.87,0,0,0,382.75,241.76Zm-174.71,5c-7.31,7.26-15,14.12-22.3,21.42-37.36,37.57-43,57.61-30.13,110.24-43.86-27.12-57.15-91.34-26.23-134.68,22.38-31.36,51.49-57.19,79.4-83.78,4.56-4.34,7.54-2.1,11.29,1.21,19.92,17.59,23.29,43.73,7.38,65.18C221.9,233.86,214.7,240.15,208,246.78Z" transform="translate(-35 -31.53)"/><path class="cls-2" d="M761.27,361l19.3,38.61h-276V109.1H775.75l-19.31,38.62H552.84V235H726.16v38.61H552.84V361Z" transform="translate(-35 -31.53)"/><path class="cls-2" d="M992.07,109.1l52.65,32V399.58H992.07l-.44-33.79a58.79,58.79,0,0,1-12.07,17.34A54.56,54.56,0,0,1,962,395a58,58,0,0,1-20.4,4.61H857.8a80.21,80.21,0,0,1-55.73-21.5q-23.27-19.31-23.25-49.58V259.61q0-30.29,23.69-49.15,22.82-21.93,54.85-21.5h93q26.34,1.75,41.69,23.7Zm0,204V276.28a46.43,46.43,0,0,0-46.51-46.51H874a41.47,41.47,0,0,0-30.27,10.53q-12.74,11-12.29,28.08v50.9q-.88,17.57,12.29,28.52A44,44,0,0,0,874,358.33h73.28a43.08,43.08,0,0,0,31.6-13.16A43.6,43.6,0,0,0,992.07,313.14Z" transform="translate(-35 -31.53)"/><path class="cls-2" d="M1317.21,212.22q25,20.63,25,53.09V399.58h-56.6V273.65q.44-18.43-13.16-30.28A44.52,44.52,0,0,0,1240,232h-60.55a45.33,45.33,0,0,0-32.69,14.26,46,46,0,0,0-13.38,33.13V399.58h-56.6V143.33l56.6-34.23V215.73q16.23-23.7,45.2-26.77h79Q1292.19,188.52,1317.21,212.22Z" transform="translate(-35 -31.53)"/><path class="cls-2" d="M1612.08,205.2q19.31,24.13,16.23,54.41v140H1573V372.82q-34.68,26.32-77.67,26.76h-64.5q-29,.87-50-19.74-19.3-18-19.3-44.32-.45-27.21,19.3-46.08,20.19-22.37,50.47-23.25H1573v-1.76a29.65,29.65,0,0,0-10.1-22.81,32.71,32.71,0,0,0-25-10.1H1375.57L1387,189h178.59Q1592.32,187.22,1612.08,205.2Zm-39,126.37V301.73H1450.16a31.69,31.69,0,0,0-23.25,9.65,30.47,30.47,0,0,0-9.22,22.38,32.2,32.2,0,0,0,8.78,22.38,35.19,35.19,0,0,0,24.57,9.65h41.69Q1539.23,364,1573,331.57Z" transform="translate(-35 -31.53)"/><path class="cls-2" d="M1868.33,292.52a66.65,66.65,0,0,1,0,88.19q-18,19.32-44.32,18.87H1654.2l11.4-36h148.32a22.59,22.59,0,0,0,17.11-7.46,25.65,25.65,0,0,0,6.58-17.55,23.09,23.09,0,0,0-7-18,18.39,18.39,0,0,0-15.8-7h-104q-26.33.89-43.88-18.43a63.7,63.7,0,0,1,0-86.88q17.55-19.76,43.88-18.87H1867l-11,35.54H1723.52a20.05,20.05,0,0,0-15.79,7,23.19,23.19,0,0,0-6.58,17.55,26.13,26.13,0,0,0,6.14,17.12,20.77,20.77,0,0,0,17.11,7.46H1824Q1850.34,273.21,1868.33,292.52Z" transform="translate(-35 -31.53)"/></svg>